<?xml version="1.0" encoding="utf-8"?>
<!-- Generator: Adobe Illustrator 21.0.0, SVG Export Plug-In . SVG Version: 6.00 Build 0)  -->
<svg version="1.1" id="Layer_1" xmlns="http://www.w3.org/2000/svg" xmlns:xlink="http://www.w3.org/1999/xlink" x="0px" y="0px"
	 viewBox="0 0 171 171" style="enable-background:new 0 0 171 171;" xml:space="preserve">
<style type="text/css">
	.st0{fill:url(#SVGID_3_);}
	.st1{clip-path:url(#SVGID_5_);}
	.st2{opacity:0.1;clip-path:url(#SVGID_7_);fill:#333333;}
</style>
<g>
	<defs>
		<path id="SVGID_1_" d="M405,171h-71c-27.5,0-50-22.5-50-50V50c0-27.5,22.5-50,50-50h71c27.5,0,50,22.5,50,50v71
			C455,148.5,432.5,171,405,171z"/>
	</defs>
	<clipPath id="SVGID_2_">
		<use xlink:href="#SVGID_1_"  style="overflow:visible;"/>
	</clipPath>
</g>
<g>
	<g>
		<linearGradient id="SVGID_3_" gradientUnits="userSpaceOnUse" x1="14.6875" y1="14.6875" x2="156.3125" y2="156.3125">
			<stop  offset="0" style="stop-color:#FF7777"/>
			<stop  offset="1" style="stop-color:#EA5D6C"/>
		</linearGradient>
		<path class="st0" d="M121,0H96.7l-0.2,2.9c-0.6,11.9,4,24.9,14.4,30.6c19.9,10.9,33,22.5,31.8,46.9l-1.4,53.9
			c-0.3,6.2-5.4,11.1-11.6,11.1c-6.5,0-11.8-5.4-11.7-11.9l2-50c0.1-6.3-4.9-11.5-11.3-11.5c-6.2,0-11.2,5-11.3,11.2l-0.9,52
			c-0.1,5.7-4.7,10.3-10.4,10.3c-5.7,0-10.3-4.6-10.4-10.3l-0.9-52c-0.1-6.2-5.1-11.2-11.3-11.2c-6.3,0-11.4,5.2-11.3,11.5l2,49.5
			c0.2,6.8-5.3,12.4-12.2,12.4c-6.5,0-11.8-5.1-12.1-11.5l-1.4-52.4c-1.3-24.3,11.8-36,31.8-46.8c10.4-5.7,15.6-19.8,15.1-31.6
			L75.3,0H50C22.5,0,0,22.5,0,50v71c0,27.5,22.5,50,50,50h71c27.5,0,50-22.5,50-50V50C171,22.5,148.5,0,121,0z"/>
	</g>
	<g>
		<defs>
			<path id="SVGID_4_" d="M121,0H96.7l-0.2,2.9c-0.6,11.9,4,24.9,14.4,30.6c19.9,10.9,33,22.5,31.8,46.9l-1.4,53.9
				c-0.3,6.2-5.4,11.1-11.6,11.1c-6.5,0-11.8-5.4-11.7-11.9l2-50c0.1-6.3-4.9-11.5-11.3-11.5c-6.2,0-11.2,5-11.3,11.2l-0.9,52
				c-0.1,5.7-4.7,10.3-10.4,10.3c-5.7,0-10.3-4.6-10.4-10.3l-0.9-52c-0.1-6.2-5.1-11.2-11.3-11.2c-6.3,0-11.4,5.2-11.3,11.5l2,49.5
				c0.2,6.8-5.3,12.4-12.2,12.4c-6.5,0-11.8-5.1-12.1-11.5l-1.4-52.4c-1.3-24.3,11.8-36,31.8-46.8c10.4-5.7,15.6-19.8,15.1-31.6
				L75.3,0H50C22.5,0,0,22.5,0,50v71c0,27.5,22.5,50,50,50h71c27.5,0,50-22.5,50-50V50C171,22.5,148.5,0,121,0z"/>
		</defs>
		<clipPath id="SVGID_5_">
			<use xlink:href="#SVGID_4_"  style="overflow:visible;"/>
		</clipPath>
		<g class="st1">
			<defs>
				<path id="SVGID_6_" d="M121,171H50c-27.5,0-50-22.5-50-50V50C0,22.5,22.5,0,50,0h71c27.5,0,50,22.5,50,50v71
					C171,148.5,148.5,171,121,171z"/>
			</defs>
			<clipPath id="SVGID_7_">
				<use xlink:href="#SVGID_6_"  style="overflow:visible;"/>
			</clipPath>
			<polygon class="st2" points="127.6,44.4 192.6,109.4 192.6,187 88,196 32.5,140.5 40.5,62 77,46 			"/>
		</g>
	</g>
</g>
</svg>
