<?xml version="1.0" encoding="utf-8"?>
<!-- Generator: Adobe Illustrator 21.0.0, SVG Export Plug-In . SVG Version: 6.00 Build 0)  -->
<svg version="1.1" id="Layer_1" xmlns="http://www.w3.org/2000/svg" xmlns:xlink="http://www.w3.org/1999/xlink" x="0px" y="0px"
	 viewBox="0 0 496 331.5" style="enable-background:new 0 0 496 331.5;" xml:space="preserve">
<style type="text/css">
	.st0{fill:#333333;}
	.st1{fill:url(#SVGID_1_);}
	.st2{opacity:0.1;clip-path:url(#SVGID_3_);fill:#333333;}
</style>
<g>
	<g>
		<path class="st0" d="M203.7,280.7c-5.4-3.2-9.6-7.4-12.8-12.8c-3.2-5.3-4.7-11.2-4.7-17.6c0-6.3,1.6-12.1,4.7-17.5
			c3.2-5.3,7.4-9.6,12.8-12.8c5.3-3.2,11.2-4.7,17.6-4.7c6.3,0,12.1,1.6,17.5,4.7c5.4,3.2,9.6,7.4,12.8,12.8
			c3.2,5.3,4.7,11.2,4.7,17.5c0,6.4-1.6,12.3-4.7,17.6c-3.2,5.3-7.4,9.6-12.8,12.8c-5.3,3.2-11.2,4.7-17.5,4.7
			C214.9,285.5,209,283.9,203.7,280.7z M232.7,270.7c3.5-2.1,6.2-4.9,8.2-8.5c2-3.6,3-7.5,3-11.8c0-4.2-1-8.1-3-11.7
			c-2-3.6-4.8-6.4-8.2-8.5c-3.5-2.1-7.3-3.2-11.4-3.2c-4.1,0-7.9,1.1-11.4,3.2c-3.5,2.1-6.2,4.9-8.3,8.5s-3.1,7.5-3.1,11.7
			c0,4.3,1,8.2,3.1,11.8c2.1,3.6,4.8,6.4,8.3,8.5c3.5,2.1,7.3,3.2,11.4,3.2C225.4,273.8,229.2,272.8,232.7,270.7z"/>
		<path class="st0" d="M311.6,217.2c1.2,1.2,1.9,2.7,1.9,4.5c0,1.6-0.5,2.9-1.6,4.1c-1.1,1.2-2.4,1.9-3.9,2.1
			c-5.9,0.6-10.8,3.1-14.7,7.5c-4,4.3-6,9.9-6,16.8v25.8c0,1.7-0.6,3.2-1.8,4.4c-1.2,1.2-2.7,1.8-4.4,1.8c-1.7,0-3.2-0.6-4.4-1.8
			c-1.2-1.2-1.8-2.7-1.8-4.4v-55.1c0-1.6,0.6-3.1,1.8-4.3c1.2-1.2,2.7-1.9,4.4-1.9c1.7,0,3.2,0.6,4.4,1.9c1.2,1.2,1.8,2.7,1.8,4.3v3
			c2.7-3.1,5.7-5.6,9.2-7.5c3.5-1.9,7-2.9,10.6-2.9C308.9,215.4,310.4,216,311.6,217.2z"/>
		<path class="st0" d="M382.8,193c0.7,1,1.1,2.1,1.1,3.3c0,1.6-0.6,3-1.7,4.1c-1.1,1.1-2.5,1.6-4.2,1.6c-0.4,0-0.9-0.1-1.6-0.3
			c-3.8-1.2-7-1.8-9.9-1.8c-2.8,0-5.2,0.6-7,1.8c-2.9,1.7-4.4,5-4.4,9.7v6.3h15.4c1.6,0,2.9,0.6,4.1,1.7c1.2,1.1,1.8,2.5,1.8,4.2
			c0,1.6-0.6,2.9-1.8,4c-1.2,1.1-2.6,1.7-4.1,1.7h-15.4v48.4c0,1.7-0.6,3.2-1.8,4.4c-1.2,1.2-2.7,1.8-4.4,1.8
			c-1.7,0-3.2-0.6-4.4-1.8c-1.2-1.2-1.8-2.7-1.8-4.4v-48.4h-6c-1.6,0-3-0.6-4.2-1.7c-1.1-1.1-1.7-2.5-1.7-4c0-1.6,0.6-3,1.7-4.2
			c1.1-1.1,2.5-1.7,4.2-1.7h6v-7.5c0-4.3,0.8-8,2.5-11.1c1.6-3.1,4-5.6,7-7.5c4-2.4,8.6-3.6,13.7-3.6c4.5,0,9.2,0.9,14.1,2.7
			C381.1,191.3,382,192,382.8,193z"/>
		<path class="st0" d="M417.1,312.6c-4.7-1.2-9.2-2.8-13.5-4.9c-1.1-0.5-2-1.2-2.7-2.3c-0.7-1.1-1-2.2-1-3.4c0-1.7,0.6-3.2,1.9-4.4
			c1.2-1.2,2.7-1.8,4.3-1.8c0.9,0,1.7,0.2,2.3,0.5c3.6,1.8,7.3,3.2,11.2,4.2c3.9,1,7.7,1.4,11.4,1.4c7.2,0,12.8-1.9,16.9-5.7
			c4-3.8,6-9.4,6-16.9v-6c-2.7,3.8-6.1,6.7-10.2,8.8c-4.2,2.1-8.6,3.2-13.4,3.2c-5.5,0-10.5-1.4-15.1-4c-4.6-2.7-8.2-6.3-10.9-10.9
			c-2.7-4.6-4-9.6-4-15.1v-32.5c0-1.7,0.6-3.2,1.8-4.4c1.2-1.2,2.7-1.8,4.4-1.8c1.7,0,3.2,0.6,4.4,1.8c1.2,1.2,1.8,2.7,1.8,4.4v29.6
			c0,3.8,0.9,7.4,2.7,10.6c1.8,3.2,4.3,5.8,7.5,7.8c3.2,1.9,6.6,2.9,10.4,2.9c3.7,0,7.2-0.9,10.4-2.8c3.2-1.9,5.7-4.4,7.5-7.6
			c1.9-3.2,2.8-6.7,2.8-10.6v-30c0-1.6,0.6-3.1,1.8-4.3c1.2-1.2,2.7-1.9,4.4-1.9c1.7,0,3.2,0.6,4.4,1.9c1.2,1.2,1.8,2.7,1.8,4.3
			v56.7c0,7.2-1.5,13.5-4.4,18.7c-2.9,5.3-7.1,9.3-12.4,12.1c-5.3,2.8-11.6,4.2-18.7,4.2C426.4,314.4,421.8,313.8,417.1,312.6z"/>
	</g>
	<g>
		<g>
			<linearGradient id="SVGID_1_" gradientUnits="userSpaceOnUse" x1="34.3294" y1="161.451" x2="162.4099" y2="289.5315">
				<stop  offset="0" style="stop-color:#FF7777"/>
				<stop  offset="1" style="stop-color:#EA5D6C"/>
			</linearGradient>
			<path class="st1" d="M127.1,304.2H69.6c-27.5,0-50-22.5-50-50v-57.5c0-27.5,22.5-50,50-50h57.5c27.5,0,50,22.5,50,50v57.5
				C177.1,281.7,154.6,304.2,127.1,304.2z"/>
			<g>
				<defs>
					<path id="SVGID_2_" d="M127.1,304.2H69.6c-27.5,0-50-22.5-50-50v-57.5c0-27.5,22.5-50,50-50h57.5c27.5,0,50,22.5,50,50v57.5
						C177.1,281.7,154.6,304.2,127.1,304.2z"/>
				</defs>
				<clipPath id="SVGID_3_">
					<use xlink:href="#SVGID_2_"  style="overflow:visible;"/>
				</clipPath>
				<polygon class="st2" points="137.1,187.7 197,247.5 197,319 100.7,327.2 49.6,276.1 56.9,203.9 90.5,189.1 				"/>
			</g>
		</g>
		<path class="st0" d="M121.8,177.6c-9.6-5.3-13.8-17.2-13.3-28.2L115,35.2c-0.2-3.8,3.5-22.1-15.8-22.1
			c-21.2,0-16.9,16.9-17.3,21.2l7.4,115.1c0.5,10.9-4.3,23.9-13.9,29.1c-18.3,10-30.4,20.7-29.2,43.1l1.3,48.2
			c0.3,5.9,5.2,10.6,11.2,10.6c6.3,0,11.3-5.2,11.2-11.5l-1.9-45.6c-0.1-5.8,4.6-10.6,10.4-10.6c5.7,0,10.3,4.6,10.4,10.3l0.9,47.9
			c0.1,5.2,4.3,9.4,9.5,9.4c5.2,0,9.5-4.2,9.5-9.4l0.9-47.9c0.1-5.7,4.7-10.3,10.4-10.3c5.8,0,10.5,4.8,10.4,10.6l-1.9,46
			c-0.1,6,4.7,11,10.7,11c5.7,0,10.4-4.5,10.7-10.2l1.3-49.6C152.2,198.3,140.1,187.6,121.8,177.6z M98.8,33.5c-2,0-3.7-1.6-3.7-3.7
			c0-2,1.6-3.7,3.7-3.7c2,0,3.7,1.6,3.7,3.7C102.5,31.9,100.9,33.5,98.8,33.5z"/>
	</g>
</g>
</svg>
