<?xml version="1.0" encoding="utf-8"?>
<!-- Generator: Adobe Illustrator 21.0.0, SVG Export Plug-In . SVG Version: 6.00 Build 0)  -->
<svg version="1.1" id="Layer_1" xmlns="http://www.w3.org/2000/svg" xmlns:xlink="http://www.w3.org/1999/xlink" x="0px" y="0px"
	 viewBox="0 0 454.4 332.5" style="enable-background:new 0 0 454.4 332.5;" xml:space="preserve">
<style type="text/css">
	.st0{fill:#333333;}
	.st1{fill:none;stroke:url(#SVGID_1_);stroke-width:9.0449;stroke-miterlimit:10;}
	.st2{fill:#FF8F8A;}
</style>
<g>
	<g>
		<g>
			<path class="st0" d="M165.1,279.9c-5.3-3.1-9.4-7.3-12.5-12.5c-3.1-5.3-4.6-11-4.6-17.3c0-6.2,1.5-11.9,4.6-17.2
				s7.3-9.4,12.5-12.5c5.3-3.1,11-4.6,17.3-4.6c6.2,0,11.9,1.5,17.2,4.6c5.3,3.1,9.4,7.3,12.5,12.5s4.6,11,4.6,17.2
				c0,6.3-1.5,12.1-4.6,17.3c-3.1,5.3-7.3,9.4-12.5,12.5c-5.3,3.1-11,4.6-17.2,4.6C176.1,284.5,170.4,283,165.1,279.9z M193.6,270
				c3.4-2.1,6.1-4.9,8.1-8.4c2-3.5,3-7.4,3-11.6c0-4.1-1-8-3-11.5c-2-3.5-4.7-6.3-8.1-8.4c-3.4-2.1-7.1-3.1-11.2-3.1
				s-7.8,1-11.2,3.1c-3.4,2.1-6.1,4.9-8.2,8.4c-2,3.5-3,7.3-3,11.5c0,4.2,1,8.1,3,11.6c2,3.5,4.7,6.3,8.2,8.4
				c3.4,2.1,7.1,3.1,11.2,3.1S190.2,272.1,193.6,270z"/>
			<path class="st0" d="M271.2,217.5c1.2,1.2,1.8,2.7,1.8,4.4c0,1.5-0.5,2.9-1.5,4c-1,1.2-2.3,1.8-3.8,2c-5.8,0.6-10.6,3.1-14.5,7.3
				c-3.9,4.3-5.9,9.8-5.9,16.5v25.3c0,1.7-0.6,3.1-1.8,4.3c-1.2,1.2-2.6,1.8-4.3,1.8c-1.7,0-3.1-0.6-4.3-1.8
				c-1.2-1.2-1.8-2.6-1.8-4.3V223c0-1.6,0.6-3,1.8-4.2c1.2-1.2,2.6-1.8,4.3-1.8c1.7,0,3.1,0.6,4.3,1.8c1.2,1.2,1.8,2.6,1.8,4.2v3
				c2.6-3.1,5.6-5.5,9-7.3c3.4-1.8,6.9-2.8,10.4-2.9C268.4,215.7,269.9,216.3,271.2,217.5z"/>
			<path class="st0" d="M341,193.7c0.7,1,1.1,2.1,1.1,3.2c0,1.6-0.6,3-1.7,4c-1.1,1.1-2.5,1.6-4.1,1.6c-0.4,0-0.9-0.1-1.6-0.3
				c-3.7-1.2-6.9-1.8-9.7-1.8c-2.8,0-5.1,0.6-6.9,1.8c-2.9,1.7-4.3,4.9-4.3,9.6v6.2h15.1c1.5,0,2.9,0.6,4,1.7
				c1.2,1.1,1.8,2.5,1.8,4.1c0,1.5-0.6,2.9-1.8,4c-1.2,1.1-2.5,1.7-4,1.7h-15.1v47.6c0,1.7-0.6,3.1-1.8,4.3
				c-1.2,1.2-2.6,1.8-4.3,1.8c-1.7,0-3.1-0.6-4.3-1.8c-1.2-1.2-1.8-2.6-1.8-4.3v-47.6h-5.9c-1.6,0-3-0.6-4.1-1.7
				c-1.1-1.1-1.7-2.4-1.7-4c0-1.6,0.6-3,1.7-4.1c1.1-1.1,2.5-1.7,4.1-1.7h5.9v-7.4c0-4.2,0.8-7.9,2.4-10.9c1.6-3.1,3.9-5.5,6.9-7.4
				c4-2.3,8.4-3.5,13.5-3.5c4.4,0,9,0.9,13.9,2.7C339.4,192,340.3,192.7,341,193.7z"/>
			<path class="st0" d="M374.8,311.2c-4.6-1.2-9.1-2.8-13.3-4.9c-1.1-0.5-2-1.2-2.6-2.2c-0.7-1-1-2.1-1-3.3c0-1.7,0.6-3.1,1.8-4.3
				c1.2-1.2,2.6-1.8,4.2-1.8c0.9,0,1.7,0.2,2.3,0.5c3.5,1.8,7.2,3.2,11,4.1c3.9,0.9,7.6,1.4,11.2,1.4c7.1,0,12.6-1.9,16.6-5.6
				c4-3.7,5.9-9.3,5.9-16.6v-5.9c-2.6,3.7-6,6.6-10,8.7c-4.1,2.1-8.5,3.2-13.1,3.2c-5.4,0-10.3-1.3-14.8-4
				c-4.5-2.6-8.1-6.2-10.7-10.7c-2.7-4.5-4-9.4-4-14.8v-31.9c0-1.7,0.6-3.1,1.8-4.3c1.2-1.2,2.6-1.8,4.3-1.8c1.7,0,3.1,0.6,4.3,1.8
				c1.2,1.2,1.8,2.6,1.8,4.3v29.1c0,3.8,0.9,7.3,2.7,10.4c1.8,3.2,4.2,5.7,7.3,7.6s6.5,2.8,10.2,2.8c3.7,0,7.1-0.9,10.2-2.8
				c3.1-1.8,5.6-4.3,7.4-7.5c1.8-3.1,2.8-6.6,2.8-10.4V223c0-1.6,0.6-3,1.8-4.2c1.2-1.2,2.6-1.8,4.3-1.8c1.7,0,3.1,0.6,4.3,1.8
				c1.2,1.2,1.8,2.6,1.8,4.2v55.7c0,7.1-1.4,13.2-4.3,18.4c-2.9,5.2-6.9,9.1-12.2,11.9c-5.3,2.7-11.4,4.1-18.4,4.1
				C383.9,313,379.4,312.4,374.8,311.2z"/>
		</g>
	</g>
	<g>
		<linearGradient id="SVGID_1_" gradientUnits="userSpaceOnUse" x1="-11.0082" y1="80.6178" x2="167.2525" y2="258.8785">
			<stop  offset="0" style="stop-color:#FF8F8A"/>
			<stop  offset="1" style="stop-color:#EA5D6C"/>
		</linearGradient>
		<path class="st1" d="M48,227.3l1.8,44.8c0.1,6.2-4.8,11.2-11,11.2c-5.9,0-10.7-4.6-11-10.4l-1.3-47.4c-1.2-22,10.7-32.5,28.7-42.4
			c9.4-5.1,14.1-17.9,13.7-28.6L61.7,41.4c0.4-4.2-3.8-20.8,17-20.8c19,0,15.4,18,15.5,21.7l-6.3,112.2
			c-0.5,10.7,3.6,22.5,13.1,27.7c18,9.9,29.9,20.4,28.7,42.4l-1.3,48.7c-0.3,5.6-4.9,10-10.5,10c-5.9,0-10.7-4.9-10.5-10.8l1.8-45.2
			c0.1-5.7-4.5-10.4-10.2-10.4c-5.6,0-10.1,4.5-10.2,10.1L87.9,274c-0.1,5.1-4.2,9.3-9.4,9.3c-5.1,0-9.3-4.1-9.4-9.3l-0.8-47.1
			c-0.1-5.6-4.6-10.1-10.2-10.1C52.4,216.8,47.8,221.5,48,227.3L48,227.3z"/>
		<circle class="st2" cx="78.4" cy="38.8" r="4.5"/>
	</g>
</g>
</svg>
