<?xml version="1.0" encoding="utf-8"?>
<!-- Generator: Adobe Illustrator 21.0.0, SVG Export Plug-In . SVG Version: 6.00 Build 0)  -->
<svg version="1.1" id="Layer_1" xmlns="http://www.w3.org/2000/svg" xmlns:xlink="http://www.w3.org/1999/xlink" x="0px" y="0px"
	 viewBox="0 0 128.4 310.4" style="enable-background:new 0 0 128.4 310.4;" xml:space="preserve">
<style type="text/css">
	.st0{fill:none;stroke:url(#SVGID_1_);stroke-width:9.5904;stroke-miterlimit:10;}
	.st1{fill:#FF8F8A;}
</style>
<g>
	<g>
		
			<linearGradient id="SVGID_1_" gradientUnits="userSpaceOnUse" x1="-30.2767" y1="232.3483" x2="158.7344" y2="43.3371" gradientTransform="matrix(1 0 0 -1 0 311.9326)">
			<stop  offset="0" style="stop-color:#FF8F8A"/>
			<stop  offset="1" style="stop-color:#EA5D6C"/>
		</linearGradient>
		<path class="st0" d="M32.3,235.1l1.9,47.5c0.1,6.6-5.1,11.9-11.7,11.9c-6.3,0-11.3-4.9-11.7-11l-1.4-50.3
			c-1.3-23.3,11.3-34.5,30.4-45c10-5.4,15-19,14.5-30.3L46.8,38c0.4-4.5-4-22.1,18-22.1C85,15.9,81.2,35,81.3,39l-6.7,119
			c-0.5,11.3,3.8,23.9,13.9,29.4c19.1,10.5,31.7,21.6,30.4,45l-1.4,51.6c-0.3,5.9-5.2,10.6-11.1,10.6c-6.3,0-11.3-5.2-11.1-11.5
			l1.9-47.9c0.1-6-4.8-11-10.8-11c-5.9,0-10.7,4.8-10.8,10.7l-1,49.8c-0.1,5.4-4.5,9.9-10,9.9c-5.4,0-9.9-4.3-10-9.9l-0.8-49.9
			C53.7,228.7,48.9,224,43,224C37,224,32.1,229,32.3,235.1L32.3,235.1z"/>
		<circle class="st1" cx="64.5" cy="35.2" r="4.8"/>
	</g>
</g>
</svg>
